<svg width="58" height="58" viewBox="0 0 58 58" fill="none" xmlns="http://www.w3.org/2000/svg">
<path d="M53.4612 15.9584C54.3939 16.6807 54.8368 17.8711 54.6086 19.0282C53.6759 23.7232 50.8174 36.765 45.7312 48.4557C44.8656 50.4354 43.3625 51.5991 40.7926 51.8198C40.3967 51.8533 40.0008 51.8666 39.5848 51.8666C36.6525 51.8666 28.8218 51.8666 28.8218 51.8666H28.5735C28.5735 51.8666 20.7429 51.8666 17.8106 51.8666C17.3946 51.8666 16.9987 51.8533 16.6028 51.8198C14.0328 51.5991 12.5298 50.4354 11.6642 48.4557C6.58466 36.7716 3.72617 23.7232 2.79347 19.0282C2.56533 17.8711 3.0082 16.6807 3.94089 15.9584C7.16844 13.4637 15.5896 8.1333 28.701 8.1333C41.8125 8.1333 50.2336 13.4637 53.4612 15.9584Z" stroke="#221F20" stroke-miterlimit="10"/>
<path d="M28.0167 23.1667C32.168 23.1667 35.5333 20.7192 35.5333 17.7001C35.5333 14.6809 32.168 12.2334 28.0167 12.2334C23.8653 12.2334 20.5 14.6809 20.5 17.7001C20.5 20.7192 23.8653 23.1667 28.0167 23.1667Z" stroke="#221F20" stroke-miterlimit="10"/>
</svg>
