<svg width="49" height="43" viewBox="0 0 49 43" fill="none" xmlns="http://www.w3.org/2000/svg">
<path fill-rule="evenodd" clip-rule="evenodd" d="M47.486 10.0599C47.9993 10.0047 48.395 10.0997 48.6659 10.3429C48.8367 10.4962 49.0324 10.7849 48.9955 11.2886L47.3266 35.6921C47.3217 35.8505 47.2453 37.583 46.1835 39.3355C45.5641 40.3764 44.6673 41.2469 43.5819 41.8611C42.2414 42.6168 40.5867 43 38.6641 43H10.333C8.41 43 6.75521 42.6168 5.4148 41.8611C4.32932 41.2469 3.43257 40.3764 2.81313 39.3355C1.75132 37.5825 1.6749 35.8505 1.67001 35.6921L0.00440625 11.2856C-0.0319087 10.7849 0.163217 10.4962 0.333409 10.3429C0.603332 10.1002 1.00117 10.0047 1.515 10.0599C5.47171 10.4829 9.63494 10.7843 13.9602 10.9632C14.1429 9.36448 14.5049 7.55114 15.2388 5.86503C16.0036 4.10436 17.0833 2.71768 18.4427 1.7469C20.0627 0.587581 22.1051 0 24.5132 0C26.903 0 28.9323 0.588091 30.5448 1.74843C31.8965 2.72125 32.9697 4.10692 33.7351 5.86761C34.4598 7.53635 34.8245 9.365 35.0115 10.9642C39.3477 10.7859 43.5173 10.4839 47.486 10.0599ZM15.9895 6.15577C16.7001 4.52384 17.6904 3.24343 18.9327 2.35747C20.4091 1.30187 22.2866 0.766409 24.5132 0.766409C26.7203 0.766409 28.5838 1.30187 30.051 2.35747C31.2863 3.2465 32.2732 4.52538 32.9822 6.15835C33.6728 7.74785 34.0212 9.46768 34.2017 10.9959C31.0873 11.1124 27.8949 11.1655 24.6243 11.1553H24.3723C21.0993 11.1658 17.8998 11.1126 14.7737 10.9954C14.9516 9.46459 15.299 7.74275 15.9895 6.15577ZM46.5163 35.6502L48.1852 11.2386V11.2406C48.1933 11.1226 48.1847 10.9734 48.1012 10.8973C48.0177 10.8212 47.8253 10.7941 47.5738 10.8212C43.5997 11.2458 39.4219 11.5487 35.0858 11.7281C35.1427 12.3724 35.1725 12.9615 35.1899 13.4724H35.1985C35.1985 13.4724 35.2635 15.251 35.7406 16.2989C35.8614 16.5856 35.966 16.8277 36.0348 16.9754C36.0728 17.0573 36.1121 17.1406 36.1517 17.2247C36.4246 17.8036 36.7135 18.4166 36.7102 18.8413C36.6927 19.812 35.853 20.5903 34.8232 20.5903C33.7933 20.5903 32.9536 19.812 32.9362 18.8413C32.9362 18.3611 33.2863 17.6483 33.5573 16.9969L33.8722 16.2386C33.9665 15.9755 34.3329 14.904 34.3871 13.8101C34.3752 13.2282 34.3465 12.5287 34.2787 11.7598C31.134 11.8783 27.9149 11.9323 24.6216 11.9217H24.3728C21.0684 11.9323 17.8425 11.8781 14.6952 11.7592C14.6415 12.3851 14.6133 12.9646 14.597 13.4724H14.6036C14.6036 13.4724 14.6686 15.251 15.1456 16.2989C15.2665 16.5856 15.3711 16.8277 15.4404 16.9754C15.7407 17.6217 16.1147 18.3549 16.1147 18.8413C16.0973 19.812 15.2575 20.5903 14.2277 20.5903C13.1978 20.5903 12.3581 19.812 12.3407 18.8413C12.3407 18.3611 12.6908 17.6483 12.9618 16.9969L13.2767 16.2386C13.5215 15.5483 13.6866 14.8352 13.7694 14.1116C13.7813 13.4688 13.8052 12.6472 13.8832 11.7275C9.55471 11.5482 5.3877 11.2458 1.42069 10.8217C1.36168 10.8152 1.30233 10.8118 1.24291 10.8115C1.07868 10.8115 0.955099 10.841 0.892769 10.8978C0.813093 10.9703 0.804964 11.1216 0.813093 11.2355L2.4825 35.6584V35.6665C2.56578 36.8316 2.9253 37.9642 3.53455 38.981C4.8549 41.1392 7.14273 42.2336 10.3341 42.2336H38.6647C41.8691 42.2336 44.1618 41.1305 45.4795 38.9559C46.4681 37.3235 46.5163 35.6829 46.5163 35.6665V35.6502Z" fill="#221F20"/>
</svg>
