<svg width="50" height="55" viewBox="0 0 50 55" fill="none" xmlns="http://www.w3.org/2000/svg">
<path fill-rule="evenodd" clip-rule="evenodd" d="M49.4731 22.7475L49.4791 22.7504C49.8511 22.9565 50.0535 23.3641 49.9877 23.775L45.1327 53.0916C44.9475 54.1944 43.9647 55.0033 42.8139 55H7.50776C6.21863 55.0026 5.11722 54.0983 4.90572 52.8634L0.0132474 23.7058C-0.0555361 23.2926 0.147849 22.8815 0.523031 22.6754L0.528467 22.6718C0.737322 22.562 0.978559 22.5248 1.2122 22.5663C1.35294 22.5874 5.95428 23.2349 15.128 23.5475L17.6865 5.76386C17.6948 5.70764 17.7141 5.65349 17.7433 5.60433C17.7297 5.54818 17.7278 5.48994 17.7379 5.43308C18.001 3.8605 18.8839 2.44901 20.1998 1.49726C21.4688 0.562427 23.1293 0.0304966 24.8809 0H25.2475C28.6263 0.0586473 31.4634 2.36114 31.9961 5.47824C32.005 5.53198 32.0036 5.58687 31.9919 5.64011C32.0239 5.69213 32.0445 5.75005 32.0523 5.81019L34.6139 23.5715C43.2506 23.3023 48.337 22.7346 48.7628 22.6502C49.0039 22.598 49.2563 22.6326 49.4731 22.7475ZM18.5835 5.88584C18.5911 5.83268 18.5887 5.77861 18.5763 5.72632C18.6036 5.68068 18.6222 5.63061 18.6312 5.57853C19.106 2.82621 21.6235 0.938359 24.8936 0.879712H25.2355C28.1751 0.930731 30.6407 2.92474 31.0991 5.62134C31.1082 5.67787 31.1288 5.73209 31.1595 5.78086C31.1486 5.8306 31.1468 5.88181 31.1541 5.93217L33.7036 23.5985C31.1843 23.6689 28.3836 23.7129 25.3242 23.7129C21.8506 23.7129 18.7568 23.6601 16.0394 23.5768L18.5835 5.88584ZM44.2388 52.9491L49.0932 23.6349C49.0999 23.5883 49.0773 23.5424 49.0358 23.5181C49.0122 23.5063 48.985 23.5029 48.9591 23.5088H48.9513C48.25 23.6512 42.9824 24.1826 34.7395 24.4436L35.0373 26.5086H35.0445C35.0445 26.5086 35.3707 28.6686 36.0834 29.8878C36.2676 30.2215 36.4265 30.503 36.5292 30.6743C36.9774 31.4226 37.4998 32.2777 37.5723 32.873C37.7138 34.0694 36.8295 35.1507 35.5972 35.2881C34.3649 35.4254 33.2513 34.5668 33.1099 33.3703C33.0564 32.9149 33.2528 32.2528 33.449 31.5911C33.5055 31.4005 33.5619 31.2099 33.6124 31.0244L33.8758 30.0614C33.9573 29.6955 34.2926 28.0897 34.1053 26.6282L34.1386 26.6241L33.8287 24.4782C31.2495 24.5492 28.3999 24.5955 25.323 24.5955C21.7999 24.5955 18.6638 24.5409 15.9126 24.4559L15.6009 26.62L15.6432 26.6252C15.4559 28.0867 15.7912 29.6925 15.8727 30.0585L16.1361 31.0244C16.1866 31.2099 16.243 31.4005 16.2995 31.5911C16.4957 32.2528 16.692 32.9149 16.6386 33.3703C16.4968 34.5676 15.3822 35.4266 14.1491 35.2889C12.9161 35.1513 12.0314 34.0691 12.1732 32.8718C12.2408 32.2766 12.7614 31.4214 13.2114 30.6731C13.3141 30.5018 13.476 30.2203 13.6572 29.8867C14.2775 28.8351 14.6067 27.0745 14.684 26.6212L14.9999 24.4237C5.732 24.104 1.11073 23.4437 1.05697 23.4348H1.0467C1.01816 23.4296 0.988605 23.4337 0.96275 23.4466C0.921276 23.4711 0.898915 23.5173 0.905974 23.5639L5.79844 52.7192C5.9378 53.5305 6.66191 54.1243 7.50901 54.122H42.8109C43.5191 54.125 44.1245 53.6277 44.2388 52.9491Z" fill="#221F20"/>
</svg>
