<svg width="168" height="64" viewBox="0 0 168 64" fill="none" xmlns="http://www.w3.org/2000/svg">
<g filter="url(#filter0_d_47_8108)">
<path d="M26.0697 1.83862C22.2076 1.83862 18.7133 2.75798 15.403 4.78056C12.0926 6.80314 9.51794 9.19346 7.67886 12.5031C5.83978 15.8128 4.73633 19.4902 4.73633 23.1677C4.73633 29.0515 6.75932 34.016 10.8053 38.2451C14.8513 42.4741 20.0007 44.6806 26.0697 44.6806C31.9547 44.6806 36.7363 42.658 40.9662 38.6128C45.1961 34.5677 47.0352 29.4193 47.0352 23.5354C47.0352 17.4677 44.8283 12.5031 40.7823 8.27411C36.7363 3.8612 31.7708 1.83862 26.0697 1.83862ZM35.449 33.0967C32.8743 35.8548 29.7478 37.1418 26.0697 37.1418C22.7593 37.1418 20.0007 36.2225 17.426 34.1999C14.1156 31.6257 12.6444 28.1322 12.6444 23.5354C12.6444 19.4902 13.9317 16.1806 16.5064 13.6064C19.0812 11.0322 22.2076 9.74508 26.0697 9.74508C29.7478 9.74508 33.0582 11.0322 35.6329 13.7902C38.2076 16.5483 39.4949 19.6741 39.4949 23.5354C39.311 27.2128 38.0237 30.3386 35.449 33.0967Z" fill="#3D3935"/>
<path d="M78.1152 12.687C76.2761 12.687 74.6209 13.0548 72.9657 13.6064C71.3106 14.3418 70.0232 15.2612 68.5519 16.5483V1.83862H61.0117V43.5773H68.5519V40.4515C70.0232 41.9225 71.4945 42.8418 72.9657 43.3935C74.437 44.1289 76.0922 44.3128 77.7473 44.3128C81.6094 44.3128 84.9198 42.8419 87.8623 39.8999C90.6209 36.958 92.0922 33.2806 92.0922 28.6838C92.0922 23.9031 90.8048 20.2257 88.0462 17.2838C85.2876 14.3418 81.9772 12.687 78.1152 12.687ZM82.345 34.9354C80.6899 36.5902 78.8508 37.5096 76.46 37.5096C74.0692 37.5096 72.0462 36.7741 70.5749 35.1193C69.1037 33.2806 68.368 31.258 68.368 28.4999C68.368 25.9257 69.1037 23.7193 70.7588 22.0644C72.414 20.4096 74.2531 19.6741 76.6439 19.6741C79.0347 19.6741 81.0577 20.4096 82.529 22.0644C84.1841 23.7193 84.9198 25.9257 84.9198 28.4999C84.7359 31.0741 84.0002 33.2806 82.345 34.9354Z" fill="#3D3935"/>
<path d="M119.309 16.7321C118.022 15.445 116.551 14.3418 114.896 13.7902C113.24 13.0547 111.585 12.8708 109.93 12.8708C106.068 12.8708 102.758 14.3418 99.9991 17.2838C97.2405 20.2257 95.9531 24.087 95.9531 28.6838C95.9531 33.0967 97.4244 36.9579 100.183 39.8999C102.942 42.8418 106.252 44.3128 110.298 44.3128C111.953 44.3128 113.608 43.945 115.08 43.3934C116.551 42.8418 118.022 41.7386 119.493 40.4515V43.5773H127.034V13.4225H119.309V16.7321ZM117.286 34.9354C115.631 36.5902 113.792 37.3257 111.401 37.3257C109.011 37.3257 107.172 36.4063 105.516 34.7515C103.861 33.0967 103.126 30.8902 103.126 28.316C103.126 25.7418 103.861 23.5354 105.516 21.8805C107.172 20.2257 109.011 19.4902 111.401 19.4902C113.792 19.4902 115.815 20.2257 117.286 21.8805C118.942 23.5354 119.677 25.5579 119.677 28.316C119.677 31.0741 118.758 33.2805 117.286 34.9354Z" fill="#3D3935"/>
<path d="M155.724 13.4225V16.7322C154.069 15.2612 152.597 14.3419 151.126 13.6064C149.471 12.8709 148 12.687 146.161 12.687C142.482 12.687 139.172 13.9741 136.597 16.5483C133.655 19.4902 132.184 23.1677 132.184 28.1322C132.184 32.5451 133.471 36.2225 136.23 39.1644C138.988 42.1064 142.299 43.5773 146.528 43.5773C148.368 43.5773 150.023 43.2096 151.494 42.658C152.965 42.1064 154.253 41.0031 155.54 39.716C155.54 42.1064 155.356 43.7612 154.804 44.8644C154.253 45.7838 153.517 46.7031 152.23 47.2548C150.942 47.9902 149.287 48.1741 147.264 48.1741C145.609 48.1741 144.322 47.9902 143.218 47.4386C142.115 47.0709 141.011 46.3354 140.459 45.5999H132.184C132.919 47.6225 133.839 49.4612 135.126 50.9322C136.413 52.4031 138.253 53.3225 140.276 54.2419C142.299 54.9773 144.689 55.3451 147.816 55.3451C153.333 55.3451 157.379 53.6902 160.138 50.3806C162.161 47.9902 163.08 44.3128 163.08 39.1644V13.4225H155.724ZM153.701 34.3838C152.046 36.0386 150.207 36.7741 147.816 36.7741C145.425 36.7741 143.402 36.0386 141.931 34.3838C140.276 32.729 139.54 30.7064 139.54 28.316C139.54 25.9257 140.276 23.9031 141.931 22.2483C143.586 20.5935 145.425 19.858 147.816 19.858C150.207 19.858 152.23 20.5935 153.701 22.2483C155.356 23.9031 156.092 25.7419 156.092 28.316C156.092 30.7064 155.172 32.729 153.701 34.3838Z" fill="#3D3935"/>
</g>
<defs>
<filter id="filter0_d_47_8108" x="0" y="0" width="168" height="65" filterUnits="userSpaceOnUse" color-interpolation-filters="sRGB">
<feFlood flood-opacity="0" result="BackgroundImageFix"/>
<feColorMatrix in="SourceAlpha" type="matrix" values="0 0 0 0 0 0 0 0 0 0 0 0 0 0 0 0 0 0 127 0" result="hardAlpha"/>
<feOffset dy="4"/>
<feGaussianBlur stdDeviation="2"/>
<feComposite in2="hardAlpha" operator="out"/>
<feColorMatrix type="matrix" values="0 0 0 0 0 0 0 0 0 0 0 0 0 0 0 0 0 0 0.25 0"/>
<feBlend mode="normal" in2="BackgroundImageFix" result="effect1_dropShadow_47_8108"/>
<feBlend mode="normal" in="SourceGraphic" in2="effect1_dropShadow_47_8108" result="shape"/>
</filter>
</defs>
</svg>
