<svg width="16" height="16" viewBox="0 0 16 16" fill="none" xmlns="http://www.w3.org/2000/svg">
<path d="M9.33287 11.9999C9.50968 11.9999 9.67925 11.9297 9.80427 11.8047C9.9293 11.6797 9.99954 11.5101 9.99954 11.3333V9.99994C9.99954 9.82312 9.9293 9.65356 9.80427 9.52853C9.67925 9.40351 9.50968 9.33327 9.33287 9.33327C9.15606 9.33327 8.98649 9.40351 8.86146 9.52853C8.73644 9.65356 8.6662 9.82312 8.6662 9.99994V11.3333C8.6662 11.5101 8.73644 11.6797 8.86146 11.8047C8.98649 11.9297 9.15606 11.9999 9.33287 11.9999ZM6.6662 11.9999C6.84301 11.9999 7.01258 11.9297 7.13761 11.8047C7.26263 11.6797 7.33287 11.5101 7.33287 11.3333V9.99994C7.33287 9.82312 7.26263 9.65356 7.13761 9.52853C7.01258 9.40351 6.84301 9.33327 6.6662 9.33327C6.48939 9.33327 6.31982 9.40351 6.1948 9.52853C6.06977 9.65356 5.99954 9.82312 5.99954 9.99994V11.3333C5.99954 11.5101 6.06977 11.6797 6.1948 11.8047C6.31982 11.9297 6.48939 11.9999 6.6662 11.9999ZM12.6662 3.99994H11.7462L10.5929 1.69994C10.5576 1.61531 10.5053 1.53885 10.4392 1.47536C10.3731 1.41186 10.2945 1.36268 10.2086 1.3309C10.1226 1.29911 10.0309 1.28541 9.93942 1.29064C9.84789 1.29586 9.75843 1.31991 9.67662 1.36128C9.5948 1.40264 9.5224 1.46044 9.46394 1.53105C9.40547 1.60166 9.3622 1.68357 9.33682 1.77167C9.31144 1.85976 9.3045 1.95214 9.31644 2.04303C9.32838 2.13393 9.35894 2.22139 9.4062 2.29994L10.2529 3.99994H5.7462L6.59287 2.29994C6.65758 2.14454 6.66111 1.97042 6.60275 1.81253C6.54439 1.65464 6.42846 1.52467 6.27824 1.44871C6.12802 1.37276 5.95463 1.35644 5.79288 1.40304C5.63113 1.44964 5.49299 1.5557 5.4062 1.69994L4.25287 3.99994H3.33287C2.86166 4.0071 2.40812 4.18043 2.05224 4.48936C1.69635 4.79828 1.46099 5.22295 1.38765 5.68847C1.31431 6.154 1.40772 6.63046 1.65139 7.03384C1.89507 7.43721 2.27335 7.74158 2.71954 7.89327L3.21287 12.8666C3.26262 13.3616 3.4951 13.8204 3.86492 14.1532C4.23474 14.4861 4.71534 14.6691 5.21287 14.6666H10.7995C11.2971 14.6691 11.7777 14.4861 12.1475 14.1532C12.5173 13.8204 12.7498 13.3616 12.7995 12.8666L13.2929 7.89327C13.74 7.74113 14.1189 7.43565 14.3624 7.03092C14.6059 6.6262 14.6983 6.14836 14.6233 5.68203C14.5482 5.21571 14.3105 4.79099 13.9523 4.48312C13.5941 4.17524 13.1385 4.00408 12.6662 3.99994ZM11.4595 12.7333C11.443 12.8983 11.3655 13.0512 11.2422 13.1621C11.1189 13.2731 10.9587 13.3341 10.7929 13.3333H5.2062C5.04036 13.3341 4.88016 13.2731 4.75689 13.1621C4.63361 13.0512 4.55612 12.8983 4.53954 12.7333L4.0662 7.99994H11.9329L11.4595 12.7333ZM12.6662 6.6666H3.33287C3.15606 6.6666 2.98649 6.59636 2.86147 6.47134C2.73644 6.34632 2.6662 6.17675 2.6662 5.99994C2.6662 5.82313 2.73644 5.65356 2.86147 5.52853C2.98649 5.40351 3.15606 5.33327 3.33287 5.33327H12.6662C12.843 5.33327 13.0126 5.40351 13.1376 5.52853C13.2626 5.65356 13.3329 5.82313 13.3329 5.99994C13.3329 6.17675 13.2626 6.34632 13.1376 6.47134C13.0126 6.59636 12.843 6.6666 12.6662 6.6666Z" fill="white"/>
</svg>
