<svg width="16" height="16" viewBox="0 0 16 16" fill="none" xmlns="http://www.w3.org/2000/svg">
<path d="M9.33287 12.0001C9.50968 12.0001 9.67925 11.9298 9.80427 11.8048C9.9293 11.6798 9.99954 11.5102 9.99954 11.3334V10.0001C9.99954 9.82325 9.9293 9.65368 9.80427 9.52865C9.67925 9.40363 9.50968 9.33339 9.33287 9.33339C9.15606 9.33339 8.98649 9.40363 8.86146 9.52865C8.73644 9.65368 8.6662 9.82325 8.6662 10.0001V11.3334C8.6662 11.5102 8.73644 11.6798 8.86146 11.8048C8.98649 11.9298 9.15606 12.0001 9.33287 12.0001ZM6.6662 12.0001C6.84301 12.0001 7.01258 11.9298 7.13761 11.8048C7.26263 11.6798 7.33287 11.5102 7.33287 11.3334V10.0001C7.33287 9.82325 7.26263 9.65368 7.13761 9.52865C7.01258 9.40363 6.84301 9.33339 6.6662 9.33339C6.48939 9.33339 6.31982 9.40363 6.1948 9.52865C6.06977 9.65368 5.99954 9.82325 5.99954 10.0001V11.3334C5.99954 11.5102 6.06977 11.6798 6.1948 11.8048C6.31982 11.9298 6.48939 12.0001 6.6662 12.0001ZM12.6662 4.00006H11.7462L10.5929 1.70006C10.5576 1.61543 10.5053 1.53897 10.4392 1.47548C10.3731 1.41198 10.2945 1.3628 10.2086 1.33102C10.1226 1.29924 10.0309 1.28553 9.93942 1.29076C9.84789 1.29598 9.75843 1.32003 9.67662 1.3614C9.5948 1.40276 9.5224 1.46056 9.46394 1.53117C9.40547 1.60178 9.3622 1.6837 9.33682 1.77179C9.31144 1.85988 9.3045 1.95226 9.31644 2.04316C9.32838 2.13405 9.35894 2.22151 9.4062 2.30006L10.2529 4.00006H5.7462L6.59287 2.30006C6.65758 2.14466 6.66111 1.97054 6.60275 1.81265C6.54439 1.65476 6.42846 1.52479 6.27824 1.44884C6.12802 1.37288 5.95463 1.35657 5.79288 1.40316C5.63113 1.44976 5.49299 1.55583 5.4062 1.70006L4.25287 4.00006H3.33287C2.86166 4.00723 2.40812 4.18056 2.05224 4.48948C1.69635 4.7984 1.46099 5.22308 1.38765 5.6886C1.31431 6.15412 1.40772 6.63058 1.65139 7.03396C1.89507 7.43733 2.27335 7.7417 2.71954 7.89339L3.21287 12.8667C3.26262 13.3618 3.4951 13.8205 3.86492 14.1533C4.23474 14.4862 4.71534 14.6692 5.21287 14.6667H10.7995C11.2971 14.6692 11.7777 14.4862 12.1475 14.1533C12.5173 13.8205 12.7498 13.3618 12.7995 12.8667L13.2929 7.89339C13.74 7.74125 14.1189 7.43577 14.3624 7.03105C14.6059 6.62632 14.6983 6.14848 14.6233 5.68215C14.5482 5.21583 14.3105 4.79112 13.9523 4.48324C13.5941 4.17537 13.1385 4.0042 12.6662 4.00006ZM11.4595 12.7334C11.443 12.8984 11.3655 13.0513 11.2422 13.1623C11.1189 13.2732 10.9587 13.3342 10.7929 13.3334H5.2062C5.04036 13.3342 4.88016 13.2732 4.75689 13.1623C4.63361 13.0513 4.55612 12.8984 4.53954 12.7334L4.0662 8.00006H11.9329L11.4595 12.7334ZM12.6662 6.66672H3.33287C3.15606 6.66672 2.98649 6.59649 2.86147 6.47146C2.73644 6.34644 2.6662 6.17687 2.6662 6.00006C2.6662 5.82325 2.73644 5.65368 2.86147 5.52865C2.98649 5.40363 3.15606 5.33339 3.33287 5.33339H12.6662C12.843 5.33339 13.0126 5.40363 13.1376 5.52865C13.2626 5.65368 13.3329 5.82325 13.3329 6.00006C13.3329 6.17687 13.2626 6.34644 13.1376 6.47146C13.0126 6.59649 12.843 6.66672 12.6662 6.66672Z" fill="#3D3935"/>
</svg>
