<svg width="24" height="24" viewBox="0 0 24 24" fill="none" xmlns="http://www.w3.org/2000/svg">
<path d="M9.16981 12.7101L13.4098 16.9501C13.5028 17.0438 13.6134 17.1182 13.7352 17.1689C13.8571 17.2197 13.9878 17.2458 14.1198 17.2458C14.2518 17.2458 14.3825 17.2197 14.5044 17.1689C14.6262 17.1182 14.7369 17.0438 14.8298 16.9501C15.0161 16.7627 15.1206 16.5092 15.1206 16.2451C15.1206 15.9809 15.0161 15.7274 14.8298 15.5401L11.2898 12.0001L14.8298 8.46005C15.0161 8.27269 15.1206 8.01924 15.1206 7.75505C15.1206 7.49086 15.0161 7.23741 14.8298 7.05005C14.7364 6.95737 14.6256 6.88404 14.5037 6.83428C14.3819 6.78452 14.2514 6.75929 14.1198 6.76005C13.9882 6.75929 13.8577 6.78452 13.7359 6.83428C13.6141 6.88404 13.5033 6.95737 13.4098 7.05005L9.16981 11.2901C9.07609 11.383 9.00169 11.4936 8.95092 11.6155C8.90015 11.7373 8.87402 11.868 8.87402 12.0001C8.87402 12.1321 8.90015 12.2628 8.95092 12.3846C9.00169 12.5065 9.07609 12.6171 9.16981 12.7101Z" fill="#3D3935"/>
</svg>
