<svg width="24" height="24" viewBox="0 0 24 24" fill="none" xmlns="http://www.w3.org/2000/svg">
<circle cx="12" cy="12" r="12" fill="white"/>
<path d="M14.6673 5.33337H9.33399C8.80356 5.33337 8.29485 5.54409 7.91978 5.91916C7.5447 6.29423 7.33399 6.80294 7.33399 7.33337V18C7.33352 18.1175 7.36411 18.233 7.42264 18.3349C7.48118 18.4367 7.56559 18.5213 7.66732 18.58C7.76867 18.6386 7.88363 18.6694 8.00066 18.6694C8.11768 18.6694 8.23264 18.6386 8.33399 18.58L12.0007 16.46L15.6673 18.58C15.7689 18.6376 15.8839 18.6675 16.0007 18.6667C16.1174 18.6675 16.2324 18.6376 16.334 18.58C16.4357 18.5213 16.5201 18.4367 16.5787 18.3349C16.6372 18.233 16.6678 18.1175 16.6673 18V7.33337C16.6673 6.80294 16.4566 6.29423 16.0815 5.91916C15.7065 5.54409 15.1978 5.33337 14.6673 5.33337ZM15.334 16.8467L12.334 15.1134C12.2326 15.0549 12.1177 15.0241 12.0007 15.0241C11.8836 15.0241 11.7687 15.0549 11.6673 15.1134L8.66732 16.8467V7.33337C8.66732 7.15656 8.73756 6.98699 8.86259 6.86197C8.98761 6.73695 9.15718 6.66671 9.33399 6.66671H14.6673C14.8441 6.66671 15.0137 6.73695 15.1387 6.86197C15.2638 6.98699 15.334 7.15656 15.334 7.33337V16.8467Z" fill="#3D3935"/>
</svg>
