<svg width="24" height="24" viewBox="0 0 24 24" fill="none" xmlns="http://www.w3.org/2000/svg">
<path d="M19.4406 13.0001C19.2206 13.0001 18.9906 12.9301 18.7706 12.8801C18.3251 12.7819 17.8873 12.6516 17.4606 12.4901C16.9967 12.3213 16.4867 12.3301 16.0289 12.5147C15.5711 12.6993 15.1977 13.0467 14.9806 13.4901L14.7606 13.9401C13.7866 13.3983 12.8916 12.7253 12.1006 11.9401C11.3154 11.1491 10.6424 10.2541 10.1006 9.28011L10.5206 9.00011C10.964 8.78303 11.3114 8.40964 11.496 7.9518C11.6806 7.49396 11.6894 6.98402 11.5206 6.52011C11.3618 6.09253 11.2315 5.65491 11.1306 5.21011C11.0806 4.99011 11.0406 4.76011 11.0106 4.53011C10.8892 3.82573 10.5202 3.18785 9.97021 2.73135C9.42021 2.27485 8.72529 2.02972 8.01059 2.04011H5.01059C4.57962 2.03607 4.15284 2.12493 3.7593 2.30064C3.36576 2.47636 3.0147 2.73481 2.73002 3.05839C2.44534 3.38198 2.23372 3.76311 2.10958 4.17583C1.98543 4.58855 1.95167 5.02317 2.01059 5.45011C2.54333 9.63949 4.45662 13.532 7.44824 16.5127C10.4399 19.4935 14.3393 21.3926 18.5306 21.9101H18.9106C19.648 21.9112 20.36 21.6406 20.9106 21.1501C21.227 20.8672 21.4797 20.5203 21.6521 20.1324C21.8244 19.7446 21.9126 19.3245 21.9106 18.9001V15.9001C21.8983 15.2055 21.6454 14.5367 21.1949 14.0078C20.7445 13.4789 20.1244 13.1227 19.4406 13.0001ZM19.9406 19.0001C19.9404 19.1421 19.91 19.2824 19.8514 19.4117C19.7927 19.5411 19.7073 19.6564 19.6006 19.7501C19.4892 19.8471 19.3586 19.9195 19.2173 19.9626C19.076 20.0057 18.9272 20.0185 18.7806 20.0001C15.0355 19.5199 11.5568 17.8066 8.89331 15.1304C6.22978 12.4542 4.533 8.96745 4.07059 5.22011C4.05467 5.07363 4.06862 4.92544 4.11159 4.7845C4.15456 4.64356 4.22566 4.5128 4.32059 4.40011C4.4143 4.29344 4.52965 4.20795 4.65897 4.14933C4.78829 4.09071 4.9286 4.06029 5.07059 4.06011H8.07059C8.30314 4.05494 8.53021 4.13099 8.71273 4.27518C8.89525 4.41937 9.0218 4.62268 9.07059 4.85011C9.11059 5.12345 9.16059 5.39345 9.22059 5.66011C9.33611 6.18726 9.48985 6.70529 9.68059 7.21011L8.28059 7.86011C8.16089 7.91503 8.05321 7.99306 7.96375 8.08971C7.87428 8.18636 7.80479 8.29973 7.75926 8.42331C7.71373 8.54689 7.69306 8.67824 7.69844 8.80983C7.70381 8.94142 7.73513 9.07066 7.79059 9.19011C9.22979 12.2729 11.7078 14.7509 14.7906 16.1901C15.0341 16.2901 15.3071 16.2901 15.5506 16.1901C15.6753 16.1455 15.7899 16.0766 15.8878 15.9873C15.9856 15.898 16.0648 15.7902 16.1206 15.6701L16.7406 14.2701C17.2576 14.455 17.7852 14.6086 18.3206 14.7301C18.5873 14.7901 18.8573 14.8401 19.1306 14.8801C19.358 14.9289 19.5613 15.0554 19.7055 15.238C19.8497 15.4205 19.9258 15.6476 19.9206 15.8801L19.9406 19.0001Z" fill="#D05871"/>
</svg>
