<svg width="48" height="48" viewBox="0 0 48 48" fill="none" xmlns="http://www.w3.org/2000/svg">
<path d="M38.8802 26.0002C38.4402 26.0002 37.9802 25.8602 37.5402 25.7602C36.6492 25.5639 35.7735 25.3032 34.9202 24.9802C33.9924 24.6427 32.9725 24.6602 32.0568 25.0294C31.1411 25.3987 30.3944 26.0935 29.9602 26.9802L29.5202 27.8802C27.5722 26.7966 25.7822 25.4507 24.2002 23.8802C22.6297 22.2983 21.2838 20.5082 20.2002 18.5602L21.0402 18.0002C21.9269 17.5661 22.6218 16.8193 22.991 15.9036C23.3602 14.9879 23.3777 13.968 23.0402 13.0402C22.7226 12.1851 22.4621 11.3098 22.2602 10.4202C22.1602 9.98022 22.0802 9.52023 22.0202 9.06023C21.7773 7.65146 21.0395 6.37571 19.9394 5.4627C18.8394 4.5497 17.4496 4.05944 16.0202 4.08022H10.0202C9.15826 4.07213 8.3047 4.24985 7.51762 4.60129C6.73054 4.95272 6.02842 5.46962 5.45906 6.11679C4.8897 6.76396 4.46647 7.52621 4.21818 8.35165C3.96988 9.17709 3.90236 10.0463 4.0202 10.9002C5.08568 19.279 8.91226 27.064 14.8955 33.0255C20.8788 38.987 28.6776 42.7852 37.0602 43.8202H37.8202C39.295 43.8224 40.719 43.2813 41.8202 42.3002C42.4529 41.7343 42.9584 41.0406 43.3031 40.2649C43.6479 39.4891 43.8241 38.6491 43.8202 37.8002V31.8002C43.7957 30.411 43.2898 29.0733 42.3889 28.0156C41.488 26.9578 40.2478 26.2455 38.8802 26.0002V26.0002ZM39.8802 38.0002C39.8798 38.2842 39.819 38.5648 39.7018 38.8235C39.5845 39.0821 39.4135 39.3128 39.2002 39.5002C38.9774 39.6942 38.7162 39.8391 38.4336 39.9252C38.151 40.0114 37.8534 40.0369 37.5602 40.0002C30.07 39.0398 23.1127 35.6132 17.7856 30.2608C12.4586 24.9084 9.06502 17.9349 8.1402 10.4402C8.10837 10.1473 8.13627 9.85088 8.22221 9.56901C8.30814 9.28713 8.45034 9.0256 8.6402 8.80022C8.82762 8.58689 9.05832 8.41591 9.31696 8.29866C9.57559 8.18141 9.85623 8.12058 10.1402 8.12022H16.1402C16.6053 8.10988 17.0594 8.26198 17.4245 8.55037C17.7895 8.83875 18.0426 9.24536 18.1402 9.70022C18.2202 10.2469 18.3202 10.7869 18.4402 11.3202C18.6712 12.3745 18.9787 13.4106 19.3602 14.4202L16.5602 15.7202C16.3208 15.8301 16.1054 15.9861 15.9265 16.1794C15.7476 16.3727 15.6086 16.5995 15.5175 16.8466C15.4265 17.0938 15.3851 17.3565 15.3959 17.6197C15.4066 17.8828 15.4693 18.1413 15.5802 18.3802C18.4586 24.5457 23.4147 29.5018 29.5802 32.3802C30.0671 32.5803 30.6133 32.5803 31.1002 32.3802C31.3496 32.291 31.5788 32.1531 31.7745 31.9746C31.9702 31.7961 32.1285 31.5804 32.2402 31.3402L33.4802 28.5402C34.5141 28.91 35.5694 29.2172 36.6402 29.4602C37.1735 29.5802 37.7135 29.6802 38.2602 29.7602C38.7151 29.8578 39.1217 30.1109 39.4101 30.4759C39.6984 30.841 39.8506 31.2951 39.8402 31.7602L39.8802 38.0002Z" fill="#D05871"/>
</svg>
