<svg width="26" height="26" viewBox="0 0 26 26" fill="none" xmlns="http://www.w3.org/2000/svg">
<path d="M15.8199 12.9999L24.4199 4.41988C24.7965 4.04328 25.0081 3.53249 25.0081 2.99988C25.0081 2.46728 24.7965 1.95649 24.4199 1.57988C24.0433 1.20328 23.5325 0.991699 22.9999 0.991699C22.4673 0.991699 21.9565 1.20328 21.5799 1.57988L12.9999 10.1799L4.41988 1.57988C4.04327 1.20328 3.53248 0.991699 2.99988 0.991699C2.46727 0.991699 1.95649 1.20328 1.57988 1.57988C1.20327 1.95649 0.991694 2.46728 0.991694 2.99988C0.991694 3.53249 1.20327 4.04328 1.57988 4.41988L10.1799 12.9999L1.57988 21.5799C1.39242 21.7658 1.24363 21.987 1.1421 22.2307C1.04056 22.4744 0.988281 22.7359 0.988281 22.9999C0.988281 23.2639 1.04056 23.5253 1.1421 23.769C1.24363 24.0128 1.39242 24.234 1.57988 24.4199C1.7658 24.6073 1.98701 24.7561 2.23072 24.8577C2.47444 24.9592 2.73585 25.0115 2.99988 25.0115C3.2639 25.0115 3.52531 24.9592 3.76903 24.8577C4.01275 24.7561 4.23395 24.6073 4.41988 24.4199L12.9999 15.8199L21.5799 24.4199C21.7658 24.6073 21.987 24.7561 22.2307 24.8577C22.4744 24.9592 22.7359 25.0115 22.9999 25.0115C23.2639 25.0115 23.5253 24.9592 23.769 24.8577C24.0128 24.7561 24.234 24.6073 24.4199 24.4199C24.6073 24.234 24.7561 24.0128 24.8577 23.769C24.9592 23.5253 25.0115 23.2639 25.0115 22.9999C25.0115 22.7359 24.9592 22.4744 24.8577 22.2307C24.7561 21.987 24.6073 21.7658 24.4199 21.5799L15.8199 12.9999Z" fill="white"/>
</svg>
