<svg width="48" height="48" viewBox="0 0 48 48" fill="none" xmlns="http://www.w3.org/2000/svg">
<path d="M34 43.9999H10C8.4087 43.9999 6.88258 43.3678 5.75736 42.2426C4.63214 41.1174 4 39.5912 4 37.9999V17.9999C4 16.4086 4.63214 14.8825 5.75736 13.7573C6.88258 12.6321 8.4087 11.9999 10 11.9999H12C12.0336 10.3052 12.6047 8.66497 13.6308 7.31579C14.657 5.96661 16.0851 4.97823 17.7093 4.4932C19.3335 4.00817 21.0697 4.05156 22.6676 4.61712C24.2656 5.18268 25.6426 6.24118 26.6 7.63993C27.4969 8.91823 27.985 10.4385 28 11.9999H34C34.5304 11.9999 35.0391 12.2106 35.4142 12.5857C35.7893 12.9608 36 13.4695 36 13.9999V19.9999C37.6947 20.0336 39.335 20.6046 40.6841 21.6308C42.0333 22.6569 43.0217 24.085 43.5067 25.7092C43.9918 27.3334 43.9484 29.0697 43.3828 30.6676C42.8172 32.2655 41.7588 33.6425 40.36 34.5999C39.0817 35.4968 37.5615 35.985 36 35.9999V35.9999V41.9999C36 42.5304 35.7893 43.0391 35.4142 43.4141C35.0391 43.7892 34.5304 43.9999 34 43.9999ZM10 15.9999C9.46957 15.9999 8.96086 16.2106 8.58579 16.5857C8.21071 16.9608 8 17.4695 8 17.9999V37.9999C8 38.5304 8.21071 39.0391 8.58579 39.4141C8.96086 39.7892 9.46957 39.9999 10 39.9999H32V33.6399C31.9983 33.3192 32.0737 33.0029 32.2199 32.7174C32.3661 32.432 32.5788 32.1859 32.84 31.9999C33.1005 31.8142 33.4017 31.6937 33.7184 31.6484C34.035 31.6032 34.358 31.6346 34.66 31.7399C35.23 31.9725 35.8508 32.0523 36.461 31.9717C37.0713 31.891 37.65 31.6526 38.14 31.2799C38.6277 30.9825 39.046 30.5841 39.3669 30.1115C39.6877 29.6388 39.9036 29.103 40 28.5399C40.0771 27.972 40.0313 27.3942 39.8657 26.8456C39.7001 26.2969 39.4185 25.7903 39.04 25.3599C38.5281 24.7382 37.8311 24.2961 37.0504 24.0983C36.2697 23.9004 35.4462 23.957 34.7 24.2599C34.398 24.3653 34.075 24.3967 33.7584 24.3514C33.4417 24.3062 33.1405 24.1857 32.88 23.9999C32.6188 23.8139 32.4061 23.5679 32.2599 23.2824C32.1137 22.997 32.0383 22.6806 32.04 22.3599V15.9999H25.64C25.3113 16.0186 24.9831 15.9558 24.6845 15.8171C24.3859 15.6784 24.1261 15.4682 23.9283 15.2051C23.7304 14.9419 23.6006 14.634 23.5503 14.3086C23.5 13.9833 23.5308 13.6505 23.64 13.3399C23.8725 12.7699 23.9524 12.1492 23.8717 11.5389C23.7911 10.9286 23.5526 10.3499 23.18 9.85993C22.8847 9.35826 22.4803 8.92947 21.9968 8.60532C21.5133 8.28117 20.963 8.06997 20.3868 7.98738C19.8105 7.90479 19.2231 7.95291 18.668 8.12819C18.1129 8.30347 17.6043 8.60141 17.18 8.99993C16.786 9.39076 16.4775 9.85931 16.2744 10.3758C16.0712 10.8923 15.9778 11.4454 16 11.9999C16.0046 12.4587 16.0927 12.9127 16.26 13.3399C16.3657 13.6424 16.3973 13.9658 16.3519 14.2829C16.3066 14.6001 16.1857 14.9017 15.9995 15.1624C15.8133 15.4232 15.5672 15.6353 15.2819 15.7811C14.9965 15.9268 14.6804 16.0019 14.36 15.9999H10Z" fill="#D05871"/>
</svg>
