<svg width="48" height="48" viewBox="0 0 48 48" fill="none" xmlns="http://www.w3.org/2000/svg">
<path d="M40 17.88C39.9792 17.6963 39.9389 17.5153 39.88 17.34V17.16C39.7838 16.9544 39.6556 16.7653 39.5 16.6V16.6L27.5 4.6C27.3347 4.44443 27.1456 4.31616 26.94 4.22H26.74C26.5455 4.11601 26.3365 4.04184 26.12 4H14C12.4087 4 10.8826 4.63214 9.75736 5.75736C8.63214 6.88258 8 8.4087 8 10V38C8 39.5913 8.63214 41.1174 9.75736 42.2426C10.8826 43.3679 12.4087 44 14 44H34C35.5913 44 37.1174 43.3679 38.2426 42.2426C39.3679 41.1174 40 39.5913 40 38V18C40 18 40 18 40 17.88ZM28 10.82L33.18 16H30C29.4696 16 28.9609 15.7893 28.5858 15.4142C28.2107 15.0391 28 14.5304 28 14V10.82ZM36 38C36 38.5304 35.7893 39.0391 35.4142 39.4142C35.0391 39.7893 34.5304 40 34 40H14C13.4696 40 12.9609 39.7893 12.5858 39.4142C12.2107 39.0391 12 38.5304 12 38V10C12 9.46957 12.2107 8.96086 12.5858 8.58579C12.9609 8.21071 13.4696 8 14 8H24V14C24 15.5913 24.6321 17.1174 25.7574 18.2426C26.8826 19.3679 28.4087 20 30 20H36V38ZM24 22.68C22.7601 22.0047 21.3175 21.8014 19.9392 22.1079C18.561 22.4143 17.3404 23.2097 16.5034 24.3468C15.6665 25.4839 15.2698 26.8857 15.3868 28.2927C15.5039 29.6998 16.1267 31.0168 17.14 32L22.58 37.44C22.7659 37.6275 22.9871 37.7762 23.2308 37.8778C23.4746 37.9793 23.736 38.0316 24 38.0316C24.264 38.0316 24.5254 37.9793 24.7692 37.8778C25.0129 37.7762 25.2341 37.6275 25.42 37.44L30.86 32C31.8733 31.0168 32.4961 29.6998 32.6132 28.2927C32.7302 26.8857 32.3335 25.4839 31.4966 24.3468C30.6596 23.2097 29.439 22.4143 28.0608 22.1079C26.6825 21.8014 25.2399 22.0047 24 22.68V22.68ZM28 26.54C28.3444 26.885 28.5378 27.3525 28.5378 27.84C28.5378 28.3275 28.3444 28.795 28 29.14L24 33.14L20 29.14C19.6556 28.795 19.4622 28.3275 19.4622 27.84C19.4622 27.3525 19.6556 26.885 20 26.54C20.345 26.1956 20.8125 26.0022 21.3 26.0022C21.7875 26.0022 22.255 26.1956 22.6 26.54C22.7859 26.7275 23.0071 26.8762 23.2508 26.9778C23.4946 27.0793 23.756 27.1316 24.02 27.1316C24.284 27.1316 24.5454 27.0793 24.7892 26.9778C25.0329 26.8762 25.2541 26.7275 25.44 26.54C25.7832 26.2076 26.2422 26.0218 26.72 26.0218C27.1978 26.0218 27.6568 26.2076 28 26.54Z" fill="#D05871"/>
</svg>
