<svg width="48" height="48" viewBox="0 0 48 48" fill="none" xmlns="http://www.w3.org/2000/svg">
<path d="M43.42 14.5799C43.2341 14.3924 43.0129 14.2436 42.7692 14.1421C42.5254 14.0406 42.264 13.9883 42 13.9883C41.736 13.9883 41.4746 14.0406 41.2308 14.1421C40.9871 14.2436 40.7659 14.3924 40.58 14.5799L28 27.1799L19.42 18.5799C19.2341 18.3924 19.0129 18.2436 18.7692 18.1421C18.5254 18.0406 18.264 17.9883 18 17.9883C17.736 17.9883 17.4746 18.0406 17.2308 18.1421C16.9871 18.2436 16.7659 18.3924 16.58 18.5799L4.58 30.5799C4.39254 30.7658 4.24375 30.987 4.14222 31.2307C4.04068 31.4744 3.9884 31.7359 3.9884 31.9999C3.9884 32.2639 4.04068 32.5253 4.14222 32.769C4.24375 33.0128 4.39254 33.234 4.58 33.4199C4.76593 33.6073 4.98713 33.7561 5.23085 33.8577C5.47457 33.9592 5.73598 34.0115 6 34.0115C6.26402 34.0115 6.52543 33.9592 6.76915 33.8577C7.01287 33.7561 7.23407 33.6073 7.42 33.4199L18 22.8199L26.58 31.4199C26.7659 31.6073 26.9871 31.7561 27.2308 31.8577C27.4746 31.9592 27.736 32.0115 28 32.0115C28.264 32.0115 28.5254 31.9592 28.7692 31.8577C29.0129 31.7561 29.2341 31.6073 29.42 31.4199L43.42 17.4199C43.6075 17.234 43.7562 17.0128 43.8578 16.769C43.9593 16.5253 44.0116 16.2639 44.0116 15.9999C44.0116 15.7359 43.9593 15.4744 43.8578 15.2307C43.7562 14.987 43.6075 14.7658 43.42 14.5799V14.5799Z" fill="#D05871"/>
</svg>
