<svg width="48" height="48" viewBox="0 0 48 48" fill="none" xmlns="http://www.w3.org/2000/svg">
<path d="M36 38H12C10.4087 38 8.88258 37.3679 7.75736 36.2426C6.63214 35.1174 6 33.5913 6 32V16C6 15.4696 5.78929 14.9609 5.41421 14.5858C5.03914 14.2107 4.53043 14 4 14C3.46957 14 2.96086 14.2107 2.58579 14.5858C2.21071 14.9609 2 15.4696 2 16V32C2 34.6522 3.05357 37.1957 4.92893 39.0711C5.85752 39.9997 6.95991 40.7362 8.17317 41.2388C9.38642 41.7413 10.6868 42 12 42H36C36.5304 42 37.0391 41.7893 37.4142 41.4142C37.7893 41.0391 38 40.5304 38 40C38 39.4696 37.7893 38.9609 37.4142 38.5858C37.0391 38.2107 36.5304 38 36 38ZM28 22H20C19.4696 22 18.9609 22.2107 18.5858 22.5858C18.2107 22.9609 18 23.4696 18 24C18 24.5304 18.2107 25.0391 18.5858 25.4142C18.9609 25.7893 19.4696 26 20 26H28C28.5304 26 29.0391 25.7893 29.4142 25.4142C29.7893 25.0391 30 24.5304 30 24C30 23.4696 29.7893 22.9609 29.4142 22.5858C29.0391 22.2107 28.5304 22 28 22ZM46 19.88C45.9792 19.6963 45.9389 19.5153 45.88 19.34V19.16C45.7838 18.9544 45.6556 18.7653 45.5 18.6V18.6L33.5 6.6C33.3347 6.44443 33.1456 6.31616 32.94 6.22H32.76C32.5568 6.10348 32.3324 6.02869 32.1 6H16C14.4087 6 12.8826 6.63214 11.7574 7.75736C10.6321 8.88258 10 10.4087 10 12V28C10 29.5913 10.6321 31.1174 11.7574 32.2426C12.8826 33.3679 14.4087 34 16 34H40C41.5913 34 43.1174 33.3679 44.2426 32.2426C45.3679 31.1174 46 29.5913 46 28V20C46 20 46 20 46 19.88ZM34 12.82L39.18 18H36C35.4696 18 34.9609 17.7893 34.5858 17.4142C34.2107 17.0391 34 16.5304 34 16V12.82ZM42 28C42 28.5304 41.7893 29.0391 41.4142 29.4142C41.0391 29.7893 40.5304 30 40 30H16C15.4696 30 14.9609 29.7893 14.5858 29.4142C14.2107 29.0391 14 28.5304 14 28V12C14 11.4696 14.2107 10.9609 14.5858 10.5858C14.9609 10.2107 15.4696 10 16 10H30V16C30 17.5913 30.6321 19.1174 31.7574 20.2426C32.8826 21.3679 34.4087 22 36 22H42V28ZM20 18H24C24.5304 18 25.0391 17.7893 25.4142 17.4142C25.7893 17.0391 26 16.5304 26 16C26 15.4696 25.7893 14.9609 25.4142 14.5858C25.0391 14.2107 24.5304 14 24 14H20C19.4696 14 18.9609 14.2107 18.5858 14.5858C18.2107 14.9609 18 15.4696 18 16C18 16.5304 18.2107 17.0391 18.5858 17.4142C18.9609 17.7893 19.4696 18 20 18V18Z" fill="#D05871"/>
</svg>
