<svg width="16" height="16" viewBox="0 0 16 16" fill="none" xmlns="http://www.w3.org/2000/svg">
<path d="M14.4742 13.5266L12.0009 11.0733C12.961 9.87621 13.4259 8.3568 13.3001 6.82747C13.1743 5.29814 12.4674 3.87512 11.3246 2.85103C10.1818 1.82694 8.69012 1.27961 7.15619 1.32158C5.62227 1.36356 4.16273 1.99164 3.07767 3.0767C1.99262 4.16175 1.36453 5.6213 1.32256 7.15522C1.28059 8.68914 1.82792 10.1808 2.85201 11.3236C3.8761 12.4664 5.29911 13.1733 6.82845 13.2991C8.35778 13.4249 9.87719 12.96 11.0742 11.9999L13.5276 14.4533C13.5896 14.5158 13.6633 14.5654 13.7445 14.5992C13.8258 14.633 13.9129 14.6505 14.0009 14.6505C14.0889 14.6505 14.1761 14.633 14.2573 14.5992C14.3385 14.5654 14.4123 14.5158 14.4742 14.4533C14.5944 14.329 14.6616 14.1628 14.6616 13.9899C14.6616 13.817 14.5944 13.6509 14.4742 13.5266V13.5266ZM7.33425 11.9999C6.41127 11.9999 5.50901 11.7262 4.74158 11.2135C3.97416 10.7007 3.37602 9.97185 3.02281 9.11913C2.6696 8.2664 2.57718 7.32809 2.75725 6.42285C2.93731 5.5176 3.38177 4.68608 4.03441 4.03344C4.68706 3.38079 5.51858 2.93634 6.42382 2.75627C7.32907 2.57621 8.26738 2.66862 9.1201 3.02183C9.97282 3.37504 10.7017 3.97318 11.2144 4.74061C11.7272 5.50804 12.0009 6.41029 12.0009 7.33327C12.0009 8.57095 11.5092 9.75793 10.6341 10.6331C9.75891 11.5083 8.57192 11.9999 7.33425 11.9999V11.9999Z" fill="#9C9C9C"/>
</svg>
