<svg width="48" height="48" viewBox="0 0 48 48" fill="none" xmlns="http://www.w3.org/2000/svg">
<path d="M36 14.0001H35.3C35.7564 13.0656 35.9957 12.04 36 11.0001C36.0061 9.60673 35.595 8.24345 34.8196 7.08574C34.0443 5.92802 32.9402 5.02884 31.6495 4.50395C30.3588 3.97906 28.9405 3.85248 27.5772 4.1405C26.214 4.42852 24.9681 5.11796 24 6.12007C23.0319 5.11796 21.786 4.42852 20.4228 4.1405C19.0595 3.85248 17.6412 3.97906 16.3505 4.50395C15.0598 5.02884 13.9557 5.92802 13.1804 7.08574C12.405 8.24345 11.9939 9.60673 12 11.0001C12.0043 12.04 12.2436 13.0656 12.7 14.0001H12C10.4087 14.0001 8.88258 14.6322 7.75736 15.7574C6.63214 16.8827 6 18.4088 6 20.0001V24.0001C6 24.5305 6.21071 25.0392 6.58579 25.4143C6.96086 25.7894 7.46957 26.0001 8 26.0001H10V38.0001C10 39.5914 10.6321 41.1175 11.7574 42.2427C12.8826 43.3679 14.4087 44.0001 16 44.0001H32C33.5913 44.0001 35.1174 43.3679 36.2426 42.2427C37.3679 41.1175 38 39.5914 38 38.0001V26.0001H40C40.5304 26.0001 41.0391 25.7894 41.4142 25.4143C41.7893 25.0392 42 24.5305 42 24.0001V20.0001C42 18.4088 41.3679 16.8827 40.2426 15.7574C39.1174 14.6322 37.5913 14.0001 36 14.0001ZM22 40.0001H16C15.4696 40.0001 14.9609 39.7894 14.5858 39.4143C14.2107 39.0392 14 38.5305 14 38.0001V26.0001H22V40.0001ZM22 22.0001H10V20.0001C10 19.4696 10.2107 18.9609 10.5858 18.5859C10.9609 18.2108 11.4696 18.0001 12 18.0001H22V22.0001ZM22 14.0001H19C18.4067 14.0001 17.8266 13.8241 17.3333 13.4945C16.8399 13.1648 16.4554 12.6963 16.2284 12.1481C16.0013 11.5999 15.9419 10.9967 16.0576 10.4148C16.1734 9.83286 16.4591 9.29831 16.8787 8.87875C17.2982 8.4592 17.8328 8.17347 18.4147 8.05772C18.9967 7.94196 19.5999 8.00137 20.1481 8.22844C20.6962 8.4555 21.1648 8.84002 21.4944 9.33336C21.8241 9.82671 22 10.4067 22 11.0001V14.0001ZM26 11.0001C26 10.4067 26.1759 9.82671 26.5056 9.33336C26.8352 8.84002 27.3038 8.4555 27.8519 8.22844C28.4001 8.00137 29.0033 7.94196 29.5853 8.05772C30.1672 8.17347 30.7018 8.4592 31.1213 8.87875C31.5409 9.29831 31.8266 9.83286 31.9424 10.4148C32.0581 10.9967 31.9987 11.5999 31.7716 12.1481C31.5446 12.6963 31.1601 13.1648 30.6667 13.4945C30.1734 13.8241 29.5933 14.0001 29 14.0001H26V11.0001ZM34 38.0001C34 38.5305 33.7893 39.0392 33.4142 39.4143C33.0391 39.7894 32.5304 40.0001 32 40.0001H26V26.0001H34V38.0001ZM38 22.0001H26V18.0001H36C36.5304 18.0001 37.0391 18.2108 37.4142 18.5859C37.7893 18.9609 38 19.4696 38 20.0001V22.0001Z" fill="#D05871"/>
</svg>
