<svg width="48" height="48" viewBox="0 0 48 48" fill="none" xmlns="http://www.w3.org/2000/svg">
<path d="M24 14C23.4696 14 22.9609 14.2107 22.5858 14.5858C22.2107 14.9609 22 15.4696 22 16V24C22 24.5304 22.2107 25.0391 22.5858 25.4142C22.9609 25.7893 23.4696 26 24 26C24.5304 26 25.0391 25.7893 25.4142 25.4142C25.7893 25.0391 26 24.5304 26 24V16C26 15.4696 25.7893 14.9609 25.4142 14.5858C25.0391 14.2107 24.5304 14 24 14ZM25.84 31.24C25.7962 31.1126 25.7357 30.9915 25.66 30.88L25.42 30.58C25.1387 30.3025 24.7816 30.1145 24.3936 30.0397C24.0056 29.965 23.6042 30.0068 23.24 30.16C22.9976 30.2613 22.7744 30.4033 22.58 30.58C22.3946 30.7669 22.248 30.9885 22.1485 31.2322C22.0489 31.4759 21.9985 31.7368 22 32C22.0032 32.2614 22.0575 32.5196 22.16 32.76C22.2498 33.0082 22.3931 33.2336 22.5798 33.4202C22.7664 33.6069 22.9918 33.7502 23.24 33.84C23.4794 33.9458 23.7383 34.0005 24 34.0005C24.2617 34.0005 24.5206 33.9458 24.76 33.84C25.0082 33.7502 25.2336 33.6069 25.4202 33.4202C25.6069 33.2336 25.7502 33.0082 25.84 32.76C25.9425 32.5196 25.9968 32.2614 26 32C26.0098 31.8668 26.0098 31.7332 26 31.6C25.9656 31.4725 25.9116 31.351 25.84 31.24V31.24ZM24 4C20.0444 4 16.1776 5.17298 12.8886 7.37061C9.59961 9.56824 7.03616 12.6918 5.5224 16.3463C4.00865 20.0009 3.61258 24.0222 4.38429 27.9018C5.15599 31.7814 7.06081 35.3451 9.85786 38.1421C12.6549 40.9392 16.2186 42.844 20.0982 43.6157C23.9778 44.3874 27.9991 43.9913 31.6537 42.4776C35.3082 40.9638 38.4318 38.4004 40.6294 35.1114C42.827 31.8224 44 27.9556 44 24C44 21.3736 43.4827 18.7728 42.4776 16.3463C41.4725 13.9198 39.9993 11.715 38.1421 9.85786C36.285 8.00069 34.0802 6.5275 31.6537 5.52241C29.2272 4.51732 26.6264 4 24 4V4ZM24 40C20.8355 40 17.7421 39.0616 15.1109 37.3035C12.4797 35.5454 10.4289 33.0466 9.21792 30.1229C8.00692 27.1993 7.69007 23.9823 8.30743 20.8786C8.92479 17.7749 10.4486 14.9239 12.6863 12.6863C14.9239 10.4487 17.7749 8.9248 20.8785 8.30744C23.9822 7.69007 27.1993 8.00693 30.1229 9.21793C33.0465 10.4289 35.5454 12.4797 37.3035 15.1109C39.0616 17.7421 40 20.8355 40 24C40 28.2435 38.3143 32.3131 35.3137 35.3137C32.3131 38.3143 28.2435 40 24 40V40Z" fill="#D05871"/>
</svg>
