<svg width="48" height="48" viewBox="0 0 48 48" fill="none" xmlns="http://www.w3.org/2000/svg">
<path d="M15.5156 21.5156C16.7023 21.5156 17.8623 21.1637 18.849 20.5044C19.8357 19.8451 20.6048 18.908 21.0589 17.8117C21.513 16.7153 21.6318 15.5089 21.4003 14.345C21.1688 13.1811 20.5974 12.112 19.7583 11.2729C18.9191 10.4338 17.85 9.86237 16.6862 9.63086C15.5223 9.39934 14.3159 9.51816 13.2195 9.97229C12.1232 10.4264 11.1861 11.1955 10.5268 12.1821C9.86751 13.1688 9.51562 14.3289 9.51562 15.5156C9.51735 17.1063 10.1501 18.6314 11.2749 19.7563C12.3997 20.8811 13.9248 21.5138 15.5156 21.5156V21.5156ZM15.5156 13.5156C15.9112 13.5156 16.2979 13.6329 16.6268 13.8526C16.9557 14.0724 17.212 14.3847 17.3634 14.7502C17.5147 15.1157 17.5544 15.5178 17.4772 15.9057C17.4 16.2937 17.2095 16.6501 16.9298 16.9298C16.6501 17.2095 16.2938 17.4 15.9058 17.4771C15.5178 17.5543 15.1157 17.5147 14.7502 17.3633C14.3848 17.2119 14.0724 16.9556 13.8527 16.6267C13.6329 16.2978 13.5156 15.9111 13.5156 15.5156C13.516 14.9852 13.7268 14.4767 14.1018 14.1017C14.4768 13.7267 14.9853 13.5159 15.5156 13.5156V13.5156ZM32.4844 26.4843C31.2977 26.4843 30.1376 26.8362 29.151 27.4955C28.1643 28.1548 27.3952 29.0919 26.9411 30.1882C26.487 31.2846 26.3682 32.491 26.5997 33.6549C26.8312 34.8188 27.4026 35.8878 28.2417 36.727C29.0808 37.5661 30.1499 38.1375 31.3138 38.369C32.4777 38.6005 33.6841 38.4817 34.7805 38.0276C35.8768 37.5735 36.8139 36.8044 37.4732 35.8177C38.1325 34.8311 38.4844 33.671 38.4844 32.4843C38.4826 30.8936 37.8499 29.3684 36.7251 28.2436C35.6003 27.1188 34.0751 26.4861 32.4844 26.4843V26.4843ZM32.4844 34.4843C32.0888 34.4843 31.7021 34.367 31.3732 34.1473C31.0443 33.9275 30.788 33.6151 30.6366 33.2497C30.4852 32.8842 30.4456 32.4821 30.5228 32.0941C30.6 31.7062 30.7905 31.3498 31.0702 31.0701C31.3499 30.7904 31.7062 30.5999 32.0942 30.5228C32.4822 30.4456 32.8843 30.4852 33.2497 30.6366C33.6152 30.7879 33.9276 31.0443 34.1473 31.3732C34.3671 31.7021 34.4844 32.0888 34.4844 32.4843C34.484 33.0146 34.2732 33.5231 33.8982 33.8981C33.5232 34.2731 33.0147 34.484 32.4844 34.4843V34.4843ZM39.414 8.58595C39.2283 8.40019 39.0079 8.25283 38.7653 8.15229C38.5226 8.05175 38.2626 8 37.9999 8C37.7373 8 37.4772 8.05175 37.2346 8.15229C36.992 8.25283 36.7715 8.40019 36.5859 8.58595L8.58588 36.5859C8.39826 36.7712 8.24914 36.9918 8.1471 37.2349C8.04505 37.478 7.99209 37.7389 7.99127 38.0026C7.99044 38.2663 8.04177 38.5275 8.1423 38.7713C8.24282 39.015 8.39056 39.2365 8.57701 39.4229C8.76346 39.6094 8.98494 39.7571 9.2287 39.8576C9.47246 39.9581 9.7337 40.0094 9.99737 40.0086C10.261 40.0078 10.5219 39.9548 10.7651 39.8527C11.0082 39.7507 11.2287 39.6016 11.414 39.4139L39.414 11.4139C39.5997 11.2283 39.7471 11.0079 39.8476 10.7652C39.9481 10.5226 39.9999 10.2626 39.9999 9.99995C39.9999 9.73733 39.9481 9.47728 39.8476 9.23466C39.7471 8.99204 39.5997 8.77161 39.414 8.58595V8.58595Z" fill="#D05871"/>
</svg>
