<svg width="48" height="48" viewBox="0 0 48 48" fill="none" xmlns="http://www.w3.org/2000/svg">
<path d="M15 12C14.4066 12 13.8266 12.176 13.3333 12.5056C12.8399 12.8353 12.4554 13.3038 12.2283 13.852C12.0013 14.4002 11.9419 15.0034 12.0576 15.5853C12.1734 16.1672 12.4591 16.7018 12.8787 17.1214C13.2982 17.5409 13.8328 17.8266 14.4147 17.9424C14.9966 18.0581 15.5998 17.9987 16.148 17.7717C16.6962 17.5446 17.1647 17.1601 17.4944 16.6667C17.824 16.1734 18 15.5934 18 15C18 14.2044 17.6839 13.4413 17.1213 12.8787C16.5587 12.3161 15.7956 12 15 12V12ZM42.24 21.42L25.42 4.58003C25.2331 4.39467 25.0115 4.24802 24.7678 4.14849C24.5241 4.04896 24.2632 3.99851 24 4.00003H5.99997C5.46954 4.00003 4.96083 4.21075 4.58576 4.58582C4.21069 4.96089 3.99997 5.4696 3.99997 6.00003V24C3.99845 24.2632 4.0489 24.5242 4.14843 24.7678C4.24796 25.0115 4.39461 25.2332 4.57997 25.42L21.42 42.24C22.545 43.3636 24.07 43.9948 25.66 43.9948C27.25 43.9948 28.775 43.3636 29.9 42.24L42.24 30C43.3636 28.875 43.9947 27.35 43.9947 25.76C43.9947 24.17 43.3636 22.645 42.24 21.52V21.42ZM39.42 27.06L27.06 39.4C26.6852 39.7725 26.1783 39.9816 25.65 39.9816C25.1216 39.9816 24.6147 39.7725 24.24 39.4L7.99997 23.18V8.00003H23.18L39.42 24.24C39.6053 24.4269 39.752 24.6485 39.8515 24.8922C39.951 25.1359 40.0015 25.3968 40 25.66C39.9978 26.1847 39.7895 26.6875 39.42 27.06V27.06Z" fill="#D05871"/>
</svg>
