<svg width="16" height="17" viewBox="0 0 16 17" fill="none" xmlns="http://www.w3.org/2000/svg">
<path d="M8.00017 1.83325C6.68162 1.83325 5.39269 2.22425 4.29636 2.95679C3.20004 3.68933 2.34555 4.73052 1.84097 5.9487C1.33638 7.16687 1.20436 8.50731 1.4616 9.80052C1.71883 11.0937 2.35377 12.2816 3.28612 13.214C4.21847 14.1463 5.40636 14.7813 6.69956 15.0385C7.99277 15.2957 9.33321 15.1637 10.5514 14.6591C11.7696 14.1545 12.8108 13.3 13.5433 12.2037C14.2758 11.1074 14.6668 9.81846 14.6668 8.49992C14.6668 7.62444 14.4944 6.75753 14.1594 5.9487C13.8243 5.13986 13.3333 4.40493 12.7142 3.78587C12.0952 3.16682 11.3602 2.67575 10.5514 2.34072C9.74255 2.00569 8.87564 1.83325 8.00017 1.83325V1.83325ZM8.00017 13.8333C6.94533 13.8333 5.91419 13.5205 5.03712 12.9344C4.16006 12.3484 3.47648 11.5154 3.07281 10.5409C2.66914 9.56636 2.56352 8.494 2.76931 7.45944C2.9751 6.42487 3.48305 5.47456 4.22893 4.72868C4.97481 3.9828 5.92512 3.47485 6.95968 3.26906C7.99425 3.06328 9.0666 3.16889 10.0411 3.57256C11.0157 3.97623 11.8486 4.65982 12.4347 5.53688C13.0207 6.41394 13.3335 7.44509 13.3335 8.49992C13.3335 9.91441 12.7716 11.271 11.7714 12.2712C10.7712 13.2713 9.41465 13.8333 8.00017 13.8333V13.8333ZM10.6668 7.83325H5.3335C5.15669 7.83325 4.98712 7.90349 4.86209 8.02851C4.73707 8.15354 4.66683 8.32311 4.66683 8.49992C4.66683 8.67673 4.73707 8.8463 4.86209 8.97132C4.98712 9.09635 5.15669 9.16659 5.3335 9.16659H10.6668C10.8436 9.16659 11.0132 9.09635 11.1382 8.97132C11.2633 8.8463 11.3335 8.67673 11.3335 8.49992C11.3335 8.32311 11.2633 8.15354 11.1382 8.02851C11.0132 7.90349 10.8436 7.83325 10.6668 7.83325Z" fill="#9C9C9C"/>
</svg>
