<svg width="16" height="17" viewBox="0 0 16 17" fill="none" xmlns="http://www.w3.org/2000/svg">
<g clip-path="url(#clip0_47_7089)">
<path d="M11.4978 8.5C11.4982 8.41199 11.4811 8.32478 11.4476 8.24341C11.4141 8.16203 11.3648 8.08809 11.3026 8.02586C11.2403 7.96363 11.1664 7.91434 11.085 7.88082C11.0036 7.84731 10.9164 7.83024 10.8284 7.83061L8.66468 7.83532L8.66939 5.67157C8.66939 5.49404 8.59887 5.32377 8.47333 5.19824C8.3478 5.0727 8.17753 5.00218 8 5.00218C7.82247 5.00218 7.6522 5.0727 7.52667 5.19824C7.40113 5.32377 7.33061 5.49404 7.33061 5.67157L7.33532 7.83532L5.17157 7.83061C5.08357 7.83024 4.99636 7.84731 4.91498 7.88082C4.8336 7.91434 4.75967 7.96363 4.69743 8.02586C4.6352 8.08809 4.58591 8.16203 4.5524 8.24341C4.51889 8.32478 4.50182 8.41199 4.50218 8.5C4.50182 8.58801 4.51889 8.67521 4.5524 8.75659C4.58591 8.83797 4.6352 8.91191 4.69743 8.97414C4.75967 9.03637 4.8336 9.08566 4.91498 9.11917C4.99636 9.15269 5.08357 9.16975 5.17157 9.16939L7.33532 9.16468L7.33061 11.3284C7.33024 11.4164 7.34731 11.5036 7.38083 11.585C7.41434 11.6664 7.46363 11.7403 7.52586 11.8026C7.58809 11.8648 7.66203 11.9141 7.74341 11.9476C7.82479 11.9811 7.91199 11.9982 8 11.9978C8.08801 11.9982 8.17521 11.9811 8.25659 11.9476C8.33797 11.9141 8.41191 11.8648 8.47414 11.8026C8.53637 11.7403 8.58566 11.6664 8.61917 11.585C8.65269 11.5036 8.66976 11.4164 8.66939 11.3284L8.66468 9.16468L10.8284 9.16939C10.9164 9.16975 11.0036 9.15269 11.085 9.11917C11.1664 9.08566 11.2403 9.03637 11.3026 8.97414C11.3648 8.91191 11.4141 8.83797 11.4476 8.75659C11.4811 8.67521 11.4982 8.58801 11.4978 8.5ZM14.6657 8.5C14.681 7.6149 14.52 6.73561 14.1919 5.91342C13.8639 5.09123 13.3753 4.34261 12.7548 3.71124C12.1343 3.07987 11.3943 2.5784 10.578 2.23609C9.76159 1.89378 8.88523 1.71748 8 1.71748C7.11477 1.71748 6.23841 1.89378 5.42204 2.23609C4.60568 2.5784 3.86566 3.07987 3.24517 3.71124C2.62468 4.34261 2.13615 5.09123 1.80807 5.91342C1.48 6.73561 1.31896 7.6149 1.33434 8.5C1.31896 9.38509 1.48 10.2644 1.80807 11.0866C2.13615 11.9088 2.62468 12.6574 3.24517 13.2888C3.86566 13.9201 4.60567 14.4216 5.42204 14.7639C6.23841 15.1062 7.11477 15.2825 8 15.2825C8.88523 15.2825 9.76159 15.1062 10.578 14.7639C11.3943 14.4216 12.1343 13.9201 12.7548 13.2888C13.3753 12.6574 13.8639 11.9088 14.1919 11.0866C14.52 10.2644 14.681 9.38509 14.6657 8.5ZM8 13.8363C6.76616 13.837 5.57025 13.4098 4.61602 12.6277C3.66179 11.8455 3.00827 10.7566 2.76682 9.54666C2.52537 8.33667 2.71091 7.0804 3.29184 5.99187C3.87277 4.90335 4.81315 4.04992 5.95275 3.57698C7.09236 3.10404 8.36068 3.04086 9.54165 3.3982C10.7226 3.75554 11.7431 4.51129 12.4294 5.53669C13.1156 6.5621 13.4251 7.79371 13.3051 9.0217C13.1851 10.2497 12.643 11.3981 11.7712 12.2712C11.2773 12.7685 10.6897 13.1629 10.0424 13.4315C9.39505 13.7002 8.70086 13.8377 8 13.8363Z" fill="#9C9C9C"/>
</g>
<defs>
<clipPath id="clip0_47_7089">
<rect width="16" height="16" fill="white" transform="translate(0 0.5)"/>
</clipPath>
</defs>
</svg>
