<svg width="24" height="24" viewBox="0 0 24 24" fill="none" xmlns="http://www.w3.org/2000/svg">
<path d="M15.71 11.29C15.801 11.3851 15.8724 11.4972 15.92 11.62C16.02 11.8635 16.02 12.1365 15.92 12.38C15.8724 12.5028 15.801 12.6149 15.71 12.71L12.71 15.71C12.5217 15.8983 12.2663 16.0041 12 16.0041C11.7337 16.0041 11.4783 15.8983 11.29 15.71C11.1017 15.5217 10.9959 15.2663 10.9959 15C10.9959 14.7337 11.1017 14.4783 11.29 14.29L12.59 13H9C8.73478 13 8.48043 12.8946 8.29289 12.7071C8.10536 12.5196 8 12.2652 8 12C8 11.7348 8.10536 11.4804 8.29289 11.2929C8.48043 11.1054 8.73478 11 9 11H12.59L11.29 9.71C11.1963 9.61704 11.1219 9.50644 11.0711 9.38458C11.0203 9.26272 10.9942 9.13201 10.9942 9C10.9942 8.86799 11.0203 8.73728 11.0711 8.61542C11.1219 8.49356 11.1963 8.38296 11.29 8.29C11.383 8.19627 11.4936 8.12188 11.6154 8.07111C11.7373 8.02034 11.868 7.9942 12 7.9942C12.132 7.9942 12.2627 8.02034 12.3846 8.07111C12.5064 8.12188 12.617 8.19627 12.71 8.29L15.71 11.29ZM22 12C22 13.9778 21.4135 15.9112 20.3147 17.5557C19.2159 19.2002 17.6541 20.4819 15.8268 21.2388C13.9996 21.9957 11.9889 22.1937 10.0491 21.8079C8.10929 21.422 6.32746 20.4696 4.92893 19.0711C3.53041 17.6725 2.578 15.8907 2.19215 13.9509C1.80629 12.0111 2.00433 10.0004 2.7612 8.17317C3.51808 6.3459 4.79981 4.78412 6.4443 3.6853C8.08879 2.58649 10.0222 2 12 2C13.3132 2 14.6136 2.25866 15.8268 2.7612C17.0401 3.26375 18.1425 4.00035 19.0711 4.92893C20.9464 6.8043 22 9.34784 22 12ZM4 12C4 13.5823 4.46919 15.129 5.34824 16.4446C6.22729 17.7602 7.47672 18.7855 8.93853 19.391C10.4003 19.9965 12.0089 20.155 13.5607 19.8463C15.1126 19.5376 16.538 18.7757 17.6569 17.6569C18.7757 16.538 19.5376 15.1126 19.8463 13.5607C20.155 12.0089 19.9965 10.4003 19.391 8.93853C18.7855 7.47672 17.7602 6.22729 16.4446 5.34824C15.129 4.46919 13.5823 4 12 4C9.87827 4 7.84344 4.84285 6.34315 6.34315C4.84285 7.84344 4 9.87827 4 12Z" fill="#D05871"/>
</svg>
