<svg width="8" height="6" viewBox="0 0 8 6" fill="none" xmlns="http://www.w3.org/2000/svg">
<path d="M3.99373 5.15225C3.86044 5.15259 3.73128 5.0927 3.62865 4.98299L0.206069 1.30347C0.0895779 1.17856 0.0163207 0.999065 0.00241378 0.804473C-0.0114932 0.60988 0.0350893 0.416131 0.131913 0.265847C0.228737 0.115563 0.367872 0.0210551 0.518708 0.00311399C0.669545 -0.0148272 0.819728 0.0452678 0.93622 0.170179L3.99373 3.46703L7.05123 0.287924C7.10958 0.226796 7.17672 0.181146 7.24879 0.1536C7.32085 0.126054 7.39643 0.117154 7.47117 0.127412C7.54591 0.13767 7.61835 0.166883 7.68431 0.213373C7.75027 0.259863 7.80847 0.322713 7.85554 0.39831C7.90778 0.473976 7.94734 0.562746 7.97175 0.659056C7.99616 0.755367 8.00489 0.857143 7.9974 0.958008C7.9899 1.05887 7.96634 1.15665 7.92818 1.24523C7.89003 1.3338 7.83811 1.41125 7.77568 1.47273L4.3531 5.02715C4.24752 5.11951 4.12099 5.16356 3.99373 5.15225Z" fill="#9C9C9C"/>
</svg>
