<svg width="24" height="24" viewBox="0 0 24 24" fill="none" xmlns="http://www.w3.org/2000/svg">
<path d="M19.5527 2.99691C19.3119 3.01443 19.0756 3.07091 18.853 3.16416H18.85C18.6362 3.24891 17.62 3.67641 16.075 4.32441L10.5385 6.65616C6.56571 8.32866 2.66046 9.97566 2.66046 9.97566L2.70696 9.95766C2.70696 9.95766 2.43771 10.0462 2.15646 10.2389C1.98271 10.3495 1.83319 10.4941 1.71696 10.6642C1.57896 10.8667 1.46796 11.1764 1.50921 11.4967C1.57671 12.0382 1.92771 12.3629 2.17971 12.5422C2.43471 12.7237 2.67771 12.8084 2.67771 12.8084H2.68371L6.34596 14.0422C6.51021 14.5694 7.46196 17.6984 7.69071 18.4192C7.82571 18.8497 7.95696 19.1189 8.12121 19.3244C8.20071 19.4294 8.29371 19.5172 8.40546 19.5877C8.46356 19.6215 8.5255 19.6481 8.58996 19.6672L8.55246 19.6582C8.56371 19.6612 8.57271 19.6702 8.58096 19.6732C8.61096 19.6814 8.63121 19.6844 8.66946 19.6904C9.24921 19.8659 9.71496 19.5059 9.71496 19.5059L9.74121 19.4849L11.9035 17.5162L15.5275 20.2964L15.61 20.3317C16.3652 20.6632 17.1302 20.4787 17.5345 20.1532C17.9417 19.8254 18.1 19.4062 18.1 19.4062L18.1262 19.3387L20.9267 4.99191C21.0062 4.63791 21.0265 4.30641 20.9387 3.98466C20.8482 3.65903 20.6393 3.37897 20.353 3.19941C20.1125 3.05325 19.8337 2.9827 19.5527 2.99691ZM19.477 4.53441C19.474 4.58166 19.483 4.57641 19.462 4.66716V4.67541L16.6877 18.8729C16.6757 18.8932 16.6555 18.9374 16.6 18.9817C16.5415 19.0282 16.495 19.0574 16.2512 18.9607L11.8187 15.5624L9.14121 18.0029L9.70371 14.4104L16.9457 7.66041C17.2442 7.38291 17.1445 7.32441 17.1445 7.32441C17.1655 6.98391 16.6937 7.22466 16.6937 7.22466L7.56171 12.8819L7.55871 12.8669L3.18171 11.3932V11.3902L3.17046 11.3879C3.17813 11.3854 3.18565 11.3824 3.19296 11.3789L3.21696 11.3669L3.24021 11.3587C3.24021 11.3587 7.14846 9.71166 11.1212 8.03916C13.1102 7.20141 15.1142 6.35766 16.6555 5.70666C18.1967 5.05941 19.336 4.58466 19.4005 4.55916C19.462 4.53516 19.4327 4.53516 19.477 4.53516V4.53441Z" fill="#D05871"/>
</svg>
