<svg width="24" height="24" viewBox="0 0 24 24" fill="none" xmlns="http://www.w3.org/2000/svg">
<path d="M11.3981 0.00398055C9.47212 0.0272306 5.33137 0.343731 3.01537 2.46848C1.29262 4.17548 0.691116 6.69923 0.620616 9.81998C0.562116 12.9295 0.491616 18.769 6.12037 20.359V22.7807C6.12037 22.7807 6.08512 23.7497 6.72562 23.9485C7.51462 24.1982 7.96387 23.4527 8.71387 22.6517L10.1126 21.07C13.9639 21.3902 16.9136 20.6522 17.2534 20.5427C18.0349 20.293 22.4366 19.7305 23.1559 13.8902C23.8939 7.85873 22.7966 4.05848 20.8159 2.33948H20.8039C20.2061 1.78898 17.8039 0.0384806 12.4369 0.0189806C12.4369 0.0189806 12.0386 -0.00801945 11.3981 0.00323055V0.00398055ZM11.4641 1.69973C12.0109 1.69598 12.3431 1.71923 12.3431 1.71923C16.8859 1.73123 19.0541 3.09848 19.5656 3.55898C21.2336 4.98848 22.0931 8.41448 21.4639 13.45C20.8661 18.3325 17.2961 18.6415 16.6354 18.8522C16.3541 18.9422 13.7561 19.5827 10.4831 19.372C10.4831 19.372 8.04562 22.3135 7.28362 23.071C7.16287 23.2037 7.02187 23.2427 6.93187 23.2232C6.80287 23.1917 6.76387 23.032 6.77137 22.813L6.79462 18.7937C2.02087 17.4737 2.30212 12.493 2.35312 9.89123C2.41162 7.28948 2.89987 5.16098 4.35337 3.71948C6.31012 1.95023 9.82612 1.71173 11.4626 1.69973H11.4641ZM11.8241 4.30073C11.7848 4.30033 11.7458 4.30772 11.7094 4.32246C11.673 4.3372 11.6399 4.359 11.6119 4.38661C11.5839 4.41422 11.5617 4.44709 11.5465 4.48332C11.5313 4.51955 11.5235 4.55844 11.5234 4.59773C11.5234 4.76573 11.6599 4.89848 11.8241 4.89848C12.5677 4.88434 13.3068 5.01756 13.9987 5.29045C14.6906 5.56334 15.3216 5.97052 15.8554 6.48848C16.9451 7.54673 17.4761 8.96873 17.4964 10.828C17.4964 10.9922 17.6291 11.1287 17.7971 11.1287V11.1167C17.8763 11.1169 17.9523 11.0858 18.0087 11.0302C18.065 10.9746 18.0971 10.8989 18.0979 10.8197C18.1343 9.94459 17.9924 9.07119 17.6807 8.2526C17.3691 7.43402 16.8943 6.68735 16.2851 6.05798C15.0979 4.89773 13.5934 4.29998 11.8241 4.29998V4.30073ZM7.87087 4.98848C7.65858 4.95746 7.44207 5.00008 7.25737 5.10923H7.24162C6.81281 5.36058 6.42653 5.67827 6.09712 6.05048C5.82337 6.36698 5.67487 6.68723 5.63587 6.99548C5.61262 7.17923 5.62837 7.36298 5.68312 7.53848L5.70262 7.55048C6.01087 8.45648 6.41362 9.32798 6.90562 10.1485C7.53938 11.3012 8.31933 12.3673 9.22612 13.3202L9.25312 13.3592L9.29587 13.3907L9.32287 13.4222L9.35437 13.4492C10.3108 14.3587 11.3794 15.1423 12.5344 15.781C13.8544 16.4995 14.6554 16.8392 15.1361 16.9802V16.9877C15.2771 17.0305 15.4054 17.05 15.5344 17.05C15.9441 17.02 16.332 16.8536 16.6361 16.5775C17.0066 16.248 17.3208 15.8601 17.5661 15.4292V15.4217C17.7964 14.9882 17.7184 14.578 17.3861 14.3005C16.7207 13.7189 16.0012 13.2022 15.2374 12.7577C14.7259 12.4802 14.2061 12.6482 13.9954 12.9295L13.5461 13.4957C13.3159 13.777 12.8974 13.738 12.8974 13.738L12.8854 13.7455C9.76462 12.9482 8.93212 9.78848 8.93212 9.78848C8.93212 9.78848 8.89312 9.35873 9.18187 9.13973L9.74437 8.68673C10.0136 8.46773 10.2011 7.94873 9.91237 7.43648C9.47092 6.6716 8.95544 5.95189 8.37337 5.28773C8.24611 5.13115 8.06759 5.02462 7.86937 4.98698L7.87087 4.98848ZM12.3431 5.87948C11.9449 5.87948 11.9449 6.48098 12.3469 6.48098C12.8421 6.48901 13.3309 6.59456 13.7853 6.79158C14.2397 6.9886 14.6508 7.27324 14.9951 7.62923C15.3092 7.97574 15.5506 8.38177 15.7049 8.82326C15.8593 9.26476 15.9234 9.73274 15.8936 10.1995C15.895 10.2785 15.9272 10.3538 15.9834 10.4093C16.0397 10.4648 16.1154 10.4961 16.1944 10.4965L16.2064 10.5122C16.2859 10.5116 16.3621 10.4798 16.4184 10.4235C16.4747 10.3672 16.5065 10.2911 16.5071 10.2115C16.5341 9.01973 16.1636 8.01998 15.4369 7.21898C14.7064 6.41798 13.6871 5.96873 12.3859 5.87948H12.3431ZM12.8359 7.49648C12.4256 7.48448 12.4099 8.09798 12.8164 8.10998C13.8049 8.16098 14.2849 8.66048 14.3479 9.68798C14.3492 9.76597 14.3811 9.84033 14.4366 9.89514C14.4921 9.94995 14.5669 9.98085 14.6449 9.98123H14.6569C14.697 9.97951 14.7363 9.96982 14.7726 9.95272C14.809 9.93563 14.8415 9.91147 14.8684 9.88166C14.8953 9.85184 14.9159 9.81698 14.9292 9.77909C14.9425 9.7412 14.948 9.70105 14.9456 9.66098C14.8751 8.32148 14.1446 7.56698 12.8479 7.49723H12.8359V7.49648Z" fill="#D05871"/>
</svg>
